<svg data-v-ce86b18b="" height="999" width="999" viewBox="0 0 999 999" xmlns="http://www.w3.org/2000/svg" class="qr" style="background: transparent;"><path id="finder" d="M74 37q-37 0 -37 37v0h37v-37zM74 74 v37q0 -37 37 -37zM74 37v37h37v-37zM111 37v37h37v-37zM148 37v37h37v-37zM185 37v37h37v-37zM222 37v37h37v-37zM259 37v37h37v-0 q0 -37 -37 -37zM259 74 v37q0 -37 -37 -37zM740 37q-37 0 -37 37v0h37v-37zM740 74 v37q0 -37 37 -37zM740 37v37h37v-37zM777 37v37h37v-37zM814 37v37h37v-37zM851 37v37h37v-37zM888 37v37h37v-37zM925 37v37h37v-0 q0 -37 -37 -37zM925 74 v37q0 -37 -37 -37zM37 74v37h37v-37zM259 74v37h37v-37zM703 74v37h37v-37zM925 74v37h37v-37zM37 111v37h37v-37zM148 111q-37 0 -37 37v0h37v-37zM148 111v37h37v-37zM185 111v37h37v-0 q0 -37 -37 -37zM259 111v37h37v-37zM703 111v37h37v-37zM814 111q-37 0 -37 37v0h37v-37zM814 111v37h37v-37zM851 111v37h37v-0 q0 -37 -37 -37zM925 111v37h37v-37zM37 148v37h37v-37zM111 148v37h37v-37zM148 148v37h37v-37zM185 148v37h37v-37zM259 148v37h37v-37zM703 148v37h37v-37zM777 148v37h37v-37zM814 148v37h37v-37zM851 148v37h37v-37zM925 148v37h37v-37zM37 185v37h37v-37zM111 185v0 q0 37 37 37h0v-37zM148 185v37h37v-37zM185 185v37h0 q37 0 37 -37v-0zM259 185v37h37v-37zM703 185v37h37v-37zM777 185v0 q0 37 37 37h0v-37zM814 185v37h37v-37zM851 185v37h0 q37 0 37 -37v-0zM925 185v37h37v-37zM37 222v37h37v-37zM259 222v37h37v-37zM703 222v37h37v-37zM925 222v37h37v-37zM37 259v0 q0 37 37 37h0v-37zM74 259 h37q-37 0 -37 -37zM74 259v37h37v-37zM111 259v37h37v-37zM148 259v37h37v-37zM185 259v37h37v-37zM222 259v37h37v-37zM259 259v37h0 q37 0 37 -37v-0zM259 259 v-37q0 37 -37 37zM703 259v0 q0 37 37 37h0v-37zM740 259 h37q-37 0 -37 -37zM740 259v37h37v-37zM777 259v37h37v-37zM814 259v37h37v-37zM851 259v37h37v-37zM888 259v37h37v-37zM925 259v37h0 q37 0 37 -37v-0zM925 259 v-37q0 37 -37 37zM74 703q-37 0 -37 37v0h37v-37zM74 740 v37q0 -37 37 -37zM74 703v37h37v-37zM111 703v37h37v-37zM148 703v37h37v-37zM185 703v37h37v-37zM222 703v37h37v-37zM259 703v37h37v-0 q0 -37 -37 -37zM259 740 v37q0 -37 -37 -37zM37 740v37h37v-37zM259 740v37h37v-37zM37 777v37h37v-37zM148 777q-37 0 -37 37v0h37v-37zM148 777v37h37v-37zM185 777v37h37v-0 q0 -37 -37 -37zM259 777v37h37v-37zM37 814v37h37v-37zM111 814v37h37v-37zM148 814v37h37v-37zM185 814v37h37v-37zM259 814v37h37v-37zM37 851v37h37v-37zM111 851v0 q0 37 37 37h0v-37zM148 851v37h37v-37zM185 851v37h0 q37 0 37 -37v-0zM259 851v37h37v-37zM37 888v37h37v-37zM259 888v37h37v-37zM37 925v0 q0 37 37 37h0v-37zM74 925 h37q-37 0 -37 -37zM74 925v37h37v-37zM111 925v37h37v-37zM148 925v37h37v-37zM185 925v37h37v-37zM222 925v37h37v-37zM259 925v37h0 q37 0 37 -37v-0zM259 925 v-37q0 37 -37 37z" fill="#2563eb"></path><path id="codeword" d="M370 37v37h37v-18.5 q0 -18.5 -18.5 -18.5zM481 37v37h37v-18.5 q0 -18.5 -18.5 -18.5zM333 74v37h37v-37zM444 74v37h37v-37zM481 74v37h37v-37zM370 148 h18.5q-18.5 0 -18.5 -18.5zM333 111v37h37v-37zM444 111v37h37v-37zM518 148 h18.5q-18.5 0 -18.5 -18.5zM481 111v37h37v-37zM592 148 h18.5q-18.5 0 -18.5 -18.5zM555 111v37h37v-18.5 q0 -18.5 -18.5 -18.5zM629 111v37h37v-18.5 q0 -18.5 -18.5 -18.5zM333 148v18.5 q0 18.5 18.5 18.5h18.5v-37zM370 148v37h37v-18.5 q0 -18.5 -18.5 -18.5zM444 148v37h37v-37zM481 148v37h37v-37zM518 148v37h37v-37zM555 148v37h37v-37zM592 148v37h37v-37zM629 148v37h37v-37zM370 185 v18.5q0 -18.5 -18.5 -18.5zM370 185v37h37v-37zM444 185v37h37v-37zM481 185v37h37v-37zM555 222 h18.5q-18.5 0 -18.5 -18.5zM518 185v37h37v-37zM629 185 v18.5q0 -18.5 -18.5 -18.5zM629 185v37h37v-37zM407 259 h18.5q-18.5 0 -18.5 -18.5zM370 222v37h37v-37zM444 222v37h37v-37zM481 222v37h37v-37zM518 222v37h37v-37zM555 222v37h37v-18.5 q0 -18.5 -18.5 -18.5zM629 222v37h37v-37zM333 259v37h37v-37zM407 259 v18.5q0 -18.5 -18.5 -18.5zM407 259v37h37v-37zM481 259 v18.5q0 -18.5 -18.5 -18.5zM481 259v37h37v-37zM555 259 v18.5q0 -18.5 -18.5 -18.5zM592 296 h18.5q-18.5 0 -18.5 -18.5zM555 259v18.5 q0 18.5 18.5 18.5h18.5v-37zM629 259v37h37v-37zM333 296v37h37v-37zM407 296v18.5 q0 18.5 18.5 18.5h18.5v-37zM518 333 h18.5q-18.5 0 -18.5 -18.5zM481 296v18.5 q0 18.5 18.5 18.5h18.5v-37zM592 296 v18.5q0 -18.5 -18.5 -18.5zM592 296v37h37v-37zM666 333 h18.5q-18.5 0 -18.5 -18.5zM629 296v37h37v-37zM74 370 h18.5q-18.5 0 -18.5 -18.5zM37 333v18.5 q0 18.5 18.5 18.5h18.5v-18.5 q0 -18.5 -18.5 -18.5zM296 370 h18.5q-18.5 0 -18.5 -18.5zM259 333v37h37v-18.5 q0 -18.5 -18.5 -18.5zM370 370 h18.5q-18.5 0 -18.5 -18.5zM333 333v37h37v-37zM518 333 v18.5q0 -18.5 -18.5 -18.5zM518 333v37h37v-37zM592 370 h18.5q-18.5 0 -18.5 -18.5zM555 333v37h37v-37zM666 333 v18.5q0 -18.5 -18.5 -18.5zM666 333v18.5 q0 18.5 18.5 18.5h18.5v-37zM740 370 h18.5q-18.5 0 -18.5 -18.5zM703 333v37h37v-18.5 q0 -18.5 -18.5 -18.5zM814 333v37h37v-37zM851 333v37h37v-37zM888 333v37h37v-18.5 q0 -18.5 -18.5 -18.5zM74 370 v18.5q0 -18.5 -18.5 -18.5zM74 370v37h37v-37zM111 370v37h37v-37zM148 370v37h37v-37zM185 370v37h37v-37zM259 407 h18.5q-18.5 0 -18.5 -18.5zM222 370v37h37v-37zM296 370 v18.5q0 -18.5 -18.5 -18.5zM296 370v37h37v-37zM370 370 v18.5q0 -18.5 -18.5 -18.5zM370 370v18.5 q0 18.5 18.5 18.5h18.5v-18.5 q0 -18.5 -18.5 -18.5zM481 407 h18.5q-18.5 0 -18.5 -18.5zM444 370v18.5 q0 18.5 18.5 18.5h18.5v-18.5 q0 -18.5 -18.5 -18.5zM518 370v37h37v-37zM555 370v37h37v-37zM629 407 h18.5q-18.5 0 -18.5 -18.5zM592 370v37h37v-18.5 q0 -18.5 -18.5 -18.5zM740 370 v18.5q0 -18.5 -18.5 -18.5zM740 370v37h37v-37zM777 370v37h37v-37zM814 370v37h37v-37zM851 370v37h37v-37zM925 407 h18.5q-18.5 0 -18.5 -18.5zM888 370v37h37v-37zM74 444 h18.5q-18.5 0 -18.5 -18.5zM37 407v18.5 q0 18.5 18.5 18.5h18.5v-37zM148 407 v18.5q0 -18.5 -18.5 -18.5zM148 407v37h37v-37zM222 407 v18.5q0 -18.5 -18.5 -18.5zM222 407v18.5 q0 18.5 18.5 18.5h18.5v-37zM259 407v37h37v-37zM481 407 v18.5q0 -18.5 -18.5 -18.5zM481 407v37h37v-37zM592 407 v18.5q0 -18.5 -18.5 -18.5zM592 407v37h37v-37zM629 407v37h37v-37zM666 407v37h37v-37zM740 444 h18.5q-18.5 0 -18.5 -18.5zM703 407v37h37v-37zM814 407 v18.5q0 -18.5 -18.5 -18.5zM814 407v37h37v-37zM888 407 v18.5q0 -18.5 -18.5 -18.5zM888 407v18.5 q0 18.5 18.5 18.5h18.5v-37zM925 407v37h37v-18.5 q0 -18.5 -18.5 -18.5zM74 444 v18.5q0 -18.5 -18.5 -18.5zM74 444v37h37v-37zM111 444v37h37v-37zM185 481 h18.5q-18.5 0 -18.5 -18.5zM148 444v37h37v-37zM333 444v37h37v-37zM407 481 h18.5q-18.5 0 -18.5 -18.5zM370 444v37h37v-18.5 q0 -18.5 -18.5 -18.5zM444 444v37h37v-37zM481 444v37h37v-37zM555 444v18.5 q0 18.5 18.5 18.5h18.5v-37zM629 444 v18.5q0 -18.5 -18.5 -18.5zM629 444v37h37v-37zM666 444v37h37v-37zM703 444v37h37v-37zM740 444v37h37v-18.5 q0 -18.5 -18.5 -18.5zM814 444v18.5 q0 18.5 18.5 18.5h18.5v-37zM925 444 v18.5q0 -18.5 -18.5 -18.5zM925 444v37h37v-37zM74 481v37h37v-37zM148 518 h18.5q-18.5 0 -18.5 -18.5zM111 481v37h37v-37zM185 481 v18.5q0 -18.5 -18.5 -18.5zM185 481v37h37v-18.5 q0 -18.5 -18.5 -18.5zM259 481v18.5 q0 18.5 18.5 18.5h18.5v-37zM296 481v37h37v-37zM370 481 v18.5q0 -18.5 -18.5 -18.5zM370 481v37h37v-37zM407 481v37h37v-37zM444 481v37h37v-37zM518 518 h18.5q-18.5 0 -18.5 -18.5zM481 481v37h37v-37zM666 518 h18.5q-18.5 0 -18.5 -18.5zM629 481v37h37v-37zM703 481 v18.5q0 -18.5 -18.5 -18.5zM703 481v37h37v-37zM740 481v37h37v-37zM925 481v37h37v-37zM37 518v37h37v-37zM74 518v37h37v-37zM111 518v37h37v-37zM185 555 h18.5q-18.5 0 -18.5 -18.5zM148 518v37h37v-37zM296 518 v18.5q0 -18.5 -18.5 -18.5zM296 518v37h37v-37zM370 518v18.5 q0 18.5 18.5 18.5h18.5v-37zM518 518 v18.5q0 -18.5 -18.5 -18.5zM555 555 h18.5q-18.5 0 -18.5 -18.5zM518 518v37h37v-18.5 q0 -18.5 -18.5 -18.5zM592 518v37h37v-37zM629 518v37h37v-37zM703 555 h18.5q-18.5 0 -18.5 -18.5zM666 518v37h37v-37zM740 518 v18.5q0 -18.5 -18.5 -18.5zM777 555 h18.5q-18.5 0 -18.5 -18.5zM740 518v37h37v-37zM925 555 h18.5q-18.5 0 -18.5 -18.5zM888 518v37h37v-37zM37 555v37h37v-37zM148 555 v18.5q0 -18.5 -18.5 -18.5zM148 555v37h37v-37zM222 592 h18.5q-18.5 0 -18.5 -18.5zM185 555v37h37v-18.5 q0 -18.5 -18.5 -18.5zM259 555v37h37v-37zM444 555v37h37v-37zM481 555v37h37v-37zM518 555v37h37v-37zM555 555v37h37v-37zM629 592 h18.5q-18.5 0 -18.5 -18.5zM592 555v37h37v-37zM666 555 v18.5q0 -18.5 -18.5 -18.5zM666 555v37h37v-37zM703 555v37h37v-37zM740 555v37h37v-37zM777 555v37h37v-37zM851 592 h18.5q-18.5 0 -18.5 -18.5zM814 555v37h37v-18.5 q0 -18.5 -18.5 -18.5zM888 555v37h37v-37zM925 555v37h37v-18.5 q0 -18.5 -18.5 -18.5zM37 592v37h37v-37zM148 629 h18.5q-18.5 0 -18.5 -18.5zM111 592v37h37v-37zM185 592 v18.5q0 -18.5 -18.5 -18.5zM185 592v37h37v-37zM259 629 h18.5q-18.5 0 -18.5 -18.5zM222 592v37h37v-37zM333 592v37h37v-37zM370 592v37h37v-18.5 q0 -18.5 -18.5 -18.5zM444 592v37h37v-37zM592 592 v18.5q0 -18.5 -18.5 -18.5zM592 592v37h37v-37zM666 629 h18.5q-18.5 0 -18.5 -18.5zM629 592v37h37v-37zM740 592 v18.5q0 -18.5 -18.5 -18.5zM777 629 h18.5q-18.5 0 -18.5 -18.5zM740 592v37h37v-37zM814 592 v18.5q0 -18.5 -18.5 -18.5zM814 592v37h37v-37zM851 592v37h37v-37zM925 592 v18.5q0 -18.5 -18.5 -18.5zM925 592v18.5 q0 18.5 18.5 18.5h18.5v-37zM37 629v18.5 q0 18.5 18.5 18.5h18.5v-37zM111 629v18.5 q0 18.5 18.5 18.5h18.5v-37zM148 629v37h37v-37zM185 629v37h37v-37zM259 629 v18.5q0 -18.5 -18.5 -18.5zM259 629v18.5 q0 18.5 18.5 18.5h18.5v-37zM333 666 h18.5q-18.5 0 -18.5 -18.5zM296 629v37h37v-37zM481 666 h18.5q-18.5 0 -18.5 -18.5zM444 629v37h37v-37zM592 629v37h37v-37zM629 629v37h37v-37zM666 629v37h37v-37zM703 629v37h37v-37zM740 629v37h37v-37zM777 629v37h37v-37zM851 629 v18.5q0 -18.5 -18.5 -18.5zM851 629v18.5 q0 18.5 18.5 18.5h18.5v-37zM333 666 v18.5q0 -18.5 -18.5 -18.5zM333 666v18.5 q0 18.5 18.5 18.5h18.5v-37zM370 666v37h37v-37zM444 703 h18.5q-18.5 0 -18.5 -18.5zM407 666v37h37v-37zM481 666 v18.5q0 -18.5 -18.5 -18.5zM481 666v37h37v-37zM518 666v37h37v-18.5 q0 -18.5 -18.5 -18.5zM592 666v18.5 q0 18.5 18.5 18.5h18.5v-37zM629 666v37h37v-37zM777 666 v18.5q0 -18.5 -18.5 -18.5zM777 666v37h37v-37zM370 703 v18.5q0 -18.5 -18.5 -18.5zM370 703v37h37v-37zM407 703v37h37v-37zM481 740 h18.5q-18.5 0 -18.5 -18.5zM444 703v37h37v-37zM629 703 v18.5q0 -18.5 -18.5 -18.5zM629 703v37h37v-37zM703 703v18.5 q0 18.5 18.5 18.5h18.5v-18.5 q0 -18.5 -18.5 -18.5zM777 703v37h37v-37zM925 703v37h37v-18.5 q0 -18.5 -18.5 -18.5zM370 740v37h37v-37zM481 740 v18.5q0 -18.5 -18.5 -18.5zM481 740v37h37v-37zM555 777 h18.5q-18.5 0 -18.5 -18.5zM518 740v37h37v-18.5 q0 -18.5 -18.5 -18.5zM592 740v37h37v-37zM666 777 h18.5q-18.5 0 -18.5 -18.5zM629 740v37h37v-37zM777 740v37h37v-37zM888 740v37h37v-37zM925 740v37h37v-37zM407 814 h18.5q-18.5 0 -18.5 -18.5zM370 777v18.5 q0 18.5 18.5 18.5h18.5v-37zM481 777v18.5 q0 18.5 18.5 18.5h18.5v-37zM555 777 v18.5q0 -18.5 -18.5 -18.5zM555 777v37h37v-37zM592 777v37h37v-37zM629 777v37h37v-37zM666 777v37h37v-37zM703 777v37h37v-37zM740 777v37h37v-37zM777 777v37h37v-37zM851 777v18.5 q0 18.5 18.5 18.5h18.5v-37zM888 777v37h37v-37zM925 777v37h37v-37zM407 814 v18.5q0 -18.5 -18.5 -18.5zM444 851 h18.5q-18.5 0 -18.5 -18.5zM407 814v37h37v-18.5 q0 -18.5 -18.5 -18.5zM555 814v18.5 q0 18.5 18.5 18.5h18.5v-37zM592 814v37h37v-37zM629 814v37h37v-37zM666 814v37h37v-37zM703 814v37h37v-37zM888 814 v18.5q0 -18.5 -18.5 -18.5zM888 814v37h37v-37zM925 814v37h37v-37zM407 888 h18.5q-18.5 0 -18.5 -18.5zM370 851v18.5 q0 18.5 18.5 18.5h18.5v-37zM444 851 v18.5q0 -18.5 -18.5 -18.5zM444 851v37h37v-37zM481 851v37h37v-18.5 q0 -18.5 -18.5 -18.5zM592 851 v18.5q0 -18.5 -18.5 -18.5zM629 888 h18.5q-18.5 0 -18.5 -18.5zM592 851v37h37v-37zM814 851v37h37v-37zM851 851v37h37v-37zM925 851 v18.5q0 -18.5 -18.5 -18.5zM925 851v37h37v-37zM407 888 v18.5q0 -18.5 -18.5 -18.5zM407 888v37h37v-37zM444 888v37h37v-37zM555 888v37h37v-37zM629 888 v18.5q0 -18.5 -18.5 -18.5zM666 925 h18.5q-18.5 0 -18.5 -18.5zM629 888v37h37v-18.5 q0 -18.5 -18.5 -18.5zM740 888v37h37v-37zM814 925 h18.5q-18.5 0 -18.5 -18.5zM777 888v37h37v-37zM925 888v37h37v-37zM333 925v18.5 q0 18.5 18.5 18.5h18.5v-37zM370 925v37h37v-37zM407 925v37h37v-37zM518 925v18.5 q0 18.5 18.5 18.5h18.5v-37zM555 925v37h37v-37zM629 925v18.5 q0 18.5 18.5 18.5h18.5v-37zM666 925v37h37v-37zM703 925v37h37v-37zM814 925 v18.5q0 -18.5 -18.5 -18.5zM814 925v18.5 q0 18.5 18.5 18.5h18.5v-18.5 q0 -18.5 -18.5 -18.5zM925 925v18.5 q0 18.5 18.5 18.5h18.5v-37z" fill="currentColor"></path><!----></svg>